<svg width="109" height="21" viewBox="0 0 109 21" fill="none" xmlns="http://www.w3.org/2000/svg">
<path d="M10.8623 0.5L13.1074 7.40983H20.3729L14.495 11.6803L16.7402 18.5902L10.8623 14.3197L4.98445 18.5902L7.22959 11.6803L1.35174 7.40983H8.61716L10.8623 0.5Z" fill="#D9D9D9"/>
<path d="M32.8623 0.5L35.1074 7.40983H42.3729L36.495 11.6803L38.7402 18.5902L32.8623 14.3197L26.9845 18.5902L29.2296 11.6803L23.3517 7.40983H30.6172L32.8623 0.5Z" fill="#D9D9D9"/>
<path d="M54.8623 0.5L57.1074 7.40983H64.3729L58.495 11.6803L60.7402 18.5902L54.8623 14.3197L48.9845 18.5902L51.2296 11.6803L45.3517 7.40983H52.6172L54.8623 0.5Z" fill="#D9D9D9"/>
<path d="M76.8623 0.5L79.1074 7.40983H86.3729L80.495 11.6803L82.7402 18.5902L76.8623 14.3197L70.9845 18.5902L73.2296 11.6803L67.3517 7.40983H74.6172L76.8623 0.5Z" fill="#D9D9D9"/>
<path d="M98.8623 0.5L101.107 7.40983H108.373L102.495 11.6803L104.74 18.5902L98.8623 14.3197L92.9845 18.5902L95.2296 11.6803L89.3517 7.40983H96.6172L98.8623 0.5Z" fill="#D9D9D9"/>
</svg>
