<svg width="33" height="34" viewBox="0 0 33 34" fill="none" xmlns="http://www.w3.org/2000/svg">
<rect y="0.379395" width="33" height="33" rx="16.5" fill="white"/>
<path d="M22.9996 20.1124V22.0694C23.0003 22.2511 22.963 22.4309 22.8901 22.5974C22.8172 22.7639 22.7102 22.9133 22.5761 23.0361C22.442 23.1589 22.2836 23.2524 22.1111 23.3106C21.9387 23.3688 21.756 23.3905 21.5747 23.3741C19.5633 23.156 17.6313 22.47 15.9338 21.3714C14.3545 20.3698 13.0155 19.0335 12.012 17.4574C10.9073 15.7555 10.2199 13.8179 10.0053 11.8016C9.98897 11.6212 10.0105 11.4394 10.0684 11.2677C10.1263 11.096 10.2194 10.9383 10.3418 10.8045C10.4641 10.6708 10.6131 10.5639 10.7791 10.4907C10.9451 10.4175 11.1246 10.3796 11.306 10.3795H13.267C13.5842 10.3763 13.8917 10.4885 14.1322 10.6949C14.3727 10.9013 14.5298 11.188 14.5742 11.5015C14.657 12.1278 14.8105 12.7427 15.0318 13.3346C15.1197 13.5681 15.1387 13.8218 15.0866 14.0658C15.0345 14.3097 14.9134 14.5336 14.7376 14.711L13.9075 15.5395C14.838 17.1726 16.1929 18.5249 17.8293 19.4535L18.6595 18.6251C18.8372 18.4497 19.0615 18.3288 19.306 18.2768C19.5504 18.2247 19.8047 18.2437 20.0386 18.3315C20.6317 18.5524 21.2478 18.7055 21.8753 18.7881C22.1929 18.8328 22.4828 18.9925 22.6901 19.2366C22.8974 19.4808 23.0076 19.7925 22.9996 20.1124Z" fill="#130662"/>
</svg>
