<svg width="31" height="32" viewBox="0 0 31 32" fill="none" xmlns="http://www.w3.org/2000/svg">
<path d="M29 0.379395H2C0.89543 0.379395 0 1.27482 0 2.37939V29.3794C0 30.484 0.89543 31.3794 2 31.3794H29C30.1046 31.3794 31 30.484 31 29.3794V2.37939C31 1.27482 30.1046 0.379395 29 0.379395Z" fill="#6695BD"/>
<path fill-rule="evenodd" clip-rule="evenodd" d="M16.99 12.1659V15.4229C16.9865 15.4767 16.9958 15.5306 17.0172 15.5801C17.0385 15.6296 17.0714 15.6732 17.113 15.7075C17.1547 15.7418 17.2038 15.7657 17.2565 15.7773C17.3091 15.7888 17.3638 15.7876 17.416 15.7739C17.716 15.7529 18.3939 12.9739 18.6949 12.3679C18.8547 12.0262 19.1114 11.739 19.433 11.5419C19.5343 11.4501 19.6636 11.3951 19.8 11.3859H22.678C22.7555 11.3992 22.8284 11.432 22.8898 11.4812C22.9512 11.5303 22.9991 11.5943 23.0291 11.667C23.0591 11.7397 23.0701 11.8189 23.0612 11.8971C23.0522 11.9752 23.0236 12.0498 22.978 12.1139C22.753 12.6139 20.823 15.7239 20.723 15.8499C20.6026 16.0125 20.5215 16.2007 20.486 16.3999C20.5253 16.6353 20.6339 16.8536 20.798 17.0269C20.998 17.2529 22.614 19.0319 22.765 19.1819C22.9073 19.3453 23.0024 19.5444 23.04 19.7579C23.0039 19.9399 22.9029 20.1025 22.7556 20.2153C22.6084 20.3281 22.4251 20.3834 22.24 20.3709C21.614 20.3709 20.0739 20.3709 19.8979 20.3709C19.5462 20.2478 19.2226 20.0557 18.946 19.8059C18.721 19.6059 17.887 18.6539 17.762 18.5289C17.7197 18.478 17.6656 18.4382 17.6044 18.413C17.5433 18.3877 17.4768 18.3777 17.4109 18.3839C17.2609 18.3839 16.976 18.3989 16.989 18.9689C17.0248 19.3638 16.942 19.7604 16.751 20.1079C16.6533 20.2015 16.5376 20.2742 16.4109 20.3215C16.2842 20.3688 16.1491 20.3897 16.014 20.3829C14.9911 20.4449 13.9739 20.1911 13.1 19.6559C11.526 18.6789 9.73396 16.0679 8.89996 14.4019C8.40249 13.5748 8.09512 12.6474 8 11.6869C8.05 11.5109 8.04995 11.3869 8.22595 11.3869C8.40195 11.3869 10.615 11.3869 10.826 11.3869C10.9721 11.4593 11.094 11.5725 11.177 11.7129C11.252 11.8129 11.824 13.5249 11.999 13.8259C12.174 14.1269 13.0369 15.7759 13.5049 15.7759C13.6603 15.7454 13.7974 15.6547 13.8862 15.5235C13.975 15.3924 14.0083 15.2315 13.9789 15.0759C13.9789 14.6759 13.9789 13.0969 13.9789 12.8959C13.7884 12.4527 13.4398 12.0963 13.001 11.8959C13.1103 11.7507 13.2498 11.6308 13.4098 11.5445C13.5698 11.4582 13.7466 11.4075 13.928 11.3959C14.528 11.3709 16.033 11.3709 16.358 11.4199C16.5324 11.4539 16.6901 11.5463 16.8049 11.6819C16.9198 11.8175 16.9851 11.9882 16.99 12.1659Z" fill="white"/>
</svg>
