<svg width="32" height="32" viewBox="0 0 32 32" fill="none" xmlns="http://www.w3.org/2000/svg">
<path d="M29.5 0.379395H2.5C1.39543 0.379395 0.5 1.27482 0.5 2.37939V29.3794C0.5 30.484 1.39543 31.3794 2.5 31.3794H29.5C30.6046 31.3794 31.5 30.484 31.5 29.3794V2.37939C31.5 1.27482 30.6046 0.379395 29.5 0.379395Z" fill="#E62117"/>
<path fill-rule="evenodd" clip-rule="evenodd" d="M19.5002 22.3794H12.5002C11.3956 22.3334 10.3544 21.8514 9.60459 21.039C8.85481 20.2266 8.45765 19.1501 8.50016 18.0454V13.7124C8.45792 12.6079 8.85521 11.5317 9.60496 10.7195C10.3547 9.90731 11.3958 9.42543 12.5002 9.37939H19.5002C20.6046 9.42516 21.6459 9.90698 22.3957 10.7192C23.1455 11.5314 23.5427 12.6078 23.5002 13.7124V18.0454C23.5429 19.1501 23.1459 20.2268 22.396 21.0392C21.6462 21.8517 20.6048 22.3336 19.5002 22.3794ZM21.5002 13.6344C21.5308 13.0719 21.3377 12.5202 20.963 12.0996C20.5883 11.679 20.0624 11.4237 19.5002 11.3894H12.5002C11.9379 11.4237 11.412 11.679 11.0373 12.0996C10.6626 12.5202 10.4695 13.0719 10.5002 13.6344V18.1234C10.4695 18.6858 10.6626 19.2376 11.0373 19.6582C11.412 20.0788 11.9379 20.3341 12.5002 20.3684H19.5002C20.0624 20.3341 20.5883 20.0788 20.963 19.6582C21.3377 19.2376 21.5308 18.6858 21.5002 18.1234V13.6344ZM14.5002 13.3664L18.5002 15.8794L14.5002 18.3904V13.3664Z" fill="white"/>
</svg>
