<svg width="33" height="34" viewBox="0 0 33 34" fill="none" xmlns="http://www.w3.org/2000/svg">
<rect y="0.561523" width="33" height="33" rx="16.5" fill="white"/>
<path d="M22.9996 20.2945V22.2515C23.0003 22.4332 22.963 22.6131 22.8901 22.7795C22.8172 22.946 22.7102 23.0954 22.5761 23.2182C22.442 23.341 22.2836 23.4346 22.1111 23.4928C21.9387 23.551 21.756 23.5726 21.5747 23.5562C19.5633 23.3381 17.6313 22.6522 15.9338 21.5535C14.3545 20.552 13.0155 19.2157 12.012 17.6395C10.9073 15.9377 10.2199 14.0001 10.0053 11.9837C9.98897 11.8033 10.0105 11.6215 10.0684 11.4498C10.1263 11.2782 10.2194 11.1204 10.3418 10.9867C10.4641 10.8529 10.6131 10.746 10.7791 10.6728C10.9451 10.5996 11.1246 10.5618 11.306 10.5616H13.267C13.5842 10.5585 13.8917 10.6706 14.1322 10.877C14.3727 11.0835 14.5298 11.3701 14.5742 11.6836C14.657 12.3099 14.8105 12.9248 15.0318 13.5167C15.1197 13.7502 15.1387 14.0039 15.0866 14.2479C15.0345 14.4918 14.9134 14.7158 14.7376 14.8931L13.9075 15.7216C14.838 17.3548 16.1929 18.707 17.8293 19.6357L18.6595 18.8072C18.8372 18.6318 19.0615 18.5109 19.306 18.4589C19.5504 18.4069 19.8047 18.4259 20.0386 18.5136C20.6317 18.7345 21.2478 18.8877 21.8753 18.9703C22.1929 19.015 22.4828 19.1746 22.6901 19.4187C22.8974 19.6629 23.0076 19.9746 22.9996 20.2945Z" fill="#130662"/>
</svg>
