<svg width="77" height="44" viewBox="0 0 77 44" fill="none" xmlns="http://www.w3.org/2000/svg">
<g clip-path="url(#clip0_71_1242)">
<path d="M41 6.84444V43.5H33V6.84444V6.34444H32.5H26.5V0.5H55.0414L58.0019 34.7542L58.0414 35.2111H58.5H60H60.4457L60.4967 34.7684L64.4457 0.5H71.4009L63.5827 43.5H54.9257L48.9936 6.76474L48.9257 6.34444H48.5H41.5H41V6.84444Z" stroke="white"/>
<path fill-rule="evenodd" clip-rule="evenodd" d="M69.8976 15.6191C68.6517 15.3145 67.3483 15.3145 66.1024 15.6191L66.0232 15.6384C64.6993 15.9621 63.4903 16.6314 62.5253 17.5749C61.848 18.2372 61.3061 19.0197 60.9288 19.8806L60.7739 20.234C60.2633 21.399 60 22.6532 60 23.9206V24.9676C60 26.235 60.2633 27.4892 60.7739 28.6542L60.9288 29.0076C61.3061 29.8685 61.848 30.651 62.5253 31.3133C63.4903 32.2568 64.6993 32.9261 66.0232 33.2498L66.1024 33.2691C67.3483 33.5737 68.6517 33.5737 69.8976 33.2691L70.6265 33.091C71.5315 32.8697 72.3771 32.4602 73.1055 31.8905C74.0182 31.1765 74.7166 30.2348 75.127 29.1647L75.4043 28.4417C75.7982 27.4146 76 26.3267 76 25.2297V23.2592C76 22.425 75.8624 21.5961 75.5926 20.8047C75.2029 19.6615 74.5463 18.6227 73.6749 17.7707L73.5324 17.6313C72.5297 16.6509 71.2733 15.9553 69.8976 15.6191ZM71.886 19.0435C71.3143 18.1118 70.4205 17.4107 69.3663 17.0671C68.4762 16.777 67.5173 16.7567 66.6152 17.0087L66.3267 17.0893C65.153 17.4172 64.1506 18.169 63.5226 19.1925C63.178 19.7541 62.9571 20.3798 62.874 21.0295L62.6692 22.6321C62.5567 23.5116 62.5414 24.4004 62.6235 25.2832L62.8835 28.0796C62.9597 28.899 63.2674 29.6816 63.7723 30.3398C64.2491 30.9614 64.8844 31.4497 65.6148 31.7557L65.957 31.8991C67.2527 32.442 68.7272 32.3997 69.9881 31.7833C70.6536 31.4579 71.2335 30.9841 71.6799 30.4021C72.2152 29.7043 72.5428 28.8729 72.6235 28.0043L72.8765 25.2832C72.9586 24.4004 72.9433 23.5116 72.8308 22.6321L72.6314 21.0717C72.5447 20.3941 72.3144 19.7416 71.955 19.156L71.886 19.0435Z" fill="white" stroke="white"/>
<path fill-rule="evenodd" clip-rule="evenodd" d="M33 15.6445H39.3955C40.7257 15.6445 41.9837 16.2357 42.8147 17.2513C43.2583 17.7936 43.5 18.4673 43.5 19.1617V21.8636C43.5 22.8901 43.083 23.8745 42.3407 24.6003C42.115 24.821 41.8522 25.0057 41.5669 25.1452C41.196 25.3265 40.7841 25.4223 40.3695 25.4223H35.5V32.7556H33V15.6445ZM40 16.6223H35.5V24.9334H39.5L41 23.9556L41.4401 23.095C41.4799 23.0173 41.5088 22.9346 41.5263 22.8495L41.7696 21.6599C41.9212 20.9186 41.9026 20.1525 41.7152 19.4194L41.5266 18.682C41.5089 18.6128 41.4835 18.5457 41.4509 18.4818L41 17.6001L40 16.6223Z" fill="white" stroke="white"/>
<path fill-rule="evenodd" clip-rule="evenodd" d="M46.5 15.6445H53.0092C54.2675 15.6445 55.4576 16.2038 56.2436 17.1645C56.7332 17.763 57 18.5065 57 19.2729V21.9101C57 22.9068 56.5951 23.8627 55.8743 24.5674C55.6281 24.8082 55.3281 24.9894 54.9979 25.0971L54 25.4223L57.5 32.7556H54L51.5 25.4223H49V32.7556H46.5V15.6445ZM54.5 17.6001C53.8597 16.974 52.9913 16.6223 52.0858 16.6223H49V24.9334H51.1972C52.3727 24.9334 53.5219 24.5933 54.5 23.9556L54.9958 22.986C54.9986 22.9806 55.0006 22.9748 55.0018 22.969L55.0969 22.5041C55.3623 21.2065 55.3297 19.8675 55.0015 18.5837C55.0005 18.5798 54.9991 18.5761 54.9972 18.5725L54.5 17.6001Z" fill="white" stroke="white"/>
<path d="M19.5 15.6445H30.5V17.1112H26.5V32.7556H23.5V17.1112H19.5V15.6445Z" fill="white"/>
<path d="M23.5 17.1112V32.7556H26.5V17.1112M26.5 17.1112H30.5V15.6445H19.5V17.1112H26.5Z" fill="white"/>
<path d="M23.5 17.1112V32.7556H26.5V17.1112M26.5 17.1112H30.5V15.6445H19.5V17.1112H26.5Z" stroke="white"/>
<path d="M17.5 15.6445H14V32.7556H17.5V15.6445Z" fill="white" stroke="white"/>
<path d="M1 32.7556V15.6445H4V22.9779L9.5 15.6445H12.5L7 23.9556L12.5 32.7556H8.5L4 25.4223V32.7556H1Z" fill="white"/>
<path d="M4 25.4223V32.7556H1V15.6445H4V22.9779M4 25.4223L8.5 32.7556H12.5L7 23.9556L12.5 15.6445H9.5L4 22.9779M4 25.4223V22.9779Z" fill="white"/>
<path fill-rule="evenodd" clip-rule="evenodd" d="M0.5 15.1553H4.5V21.4841L9.24663 15.1553H13.4191L7.59062 23.9627L13.3915 33.2442H8.2169L4.5 27.187V33.2442H0.5V15.1553ZM4.5 25.2865L8.7831 32.2664H11.6085L6.40938 23.9478L11.5809 16.1331H9.75337L4.5 23.1375V25.2865ZM1.5 16.1331V32.2664H3.5V16.1331H1.5Z" fill="white"/>
</g>
<defs>
<clipPath id="clip0_71_1242">
<rect width="77" height="44" fill="white"/>
</clipPath>
</defs>
</svg>
