<svg width="17" height="18" viewBox="0 0 17 18" fill="none" xmlns="http://www.w3.org/2000/svg">
<g clip-path="url(#clip0_55_602)">
<path d="M6.37533 15.945C6.76653 15.945 7.08366 15.6279 7.08366 15.2367C7.08366 14.8455 6.76653 14.5283 6.37533 14.5283C5.98412 14.5283 5.66699 14.8455 5.66699 15.2367C5.66699 15.6279 5.98412 15.945 6.37533 15.945Z" fill="white" stroke="white" stroke-width="2" stroke-linecap="round" stroke-linejoin="round"/>
<path d="M14.1663 15.945C14.5575 15.945 14.8747 15.6279 14.8747 15.2367C14.8747 14.8455 14.5575 14.5283 14.1663 14.5283C13.7751 14.5283 13.458 14.8455 13.458 15.2367C13.458 15.6279 13.7751 15.945 14.1663 15.945Z" fill="white" stroke="white" stroke-width="2" stroke-linecap="round" stroke-linejoin="round"/>
<path d="M4.24968 4.611L5.43968 10.5539C5.50445 10.88 5.68186 11.173 5.94085 11.3815C6.19985 11.59 6.52392 11.7007 6.85634 11.6943H13.7413C14.0738 11.7007 14.3978 11.59 14.6568 11.3815C14.9158 11.173 15.0932 10.88 15.158 10.5539L16.2913 4.611H4.24968Z" fill="white"/>
<path d="M0.708008 1.06934H3.54134L5.43968 10.5539M5.43968 10.5539C5.50445 10.88 5.68186 11.173 5.94085 11.3815C6.19985 11.59 6.52392 11.7007 6.85634 11.6943H13.7413C14.0738 11.7007 14.3978 11.59 14.6568 11.3815C14.9158 11.173 15.0932 10.88 15.158 10.5539L16.2913 4.611H4.24968L5.43968 10.5539Z" stroke="white" stroke-width="2" stroke-linecap="round" stroke-linejoin="round"/>
</g>
<defs>
<clipPath id="clip0_55_602">
<rect width="17" height="17" fill="white" transform="translate(0 0.361328)"/>
</clipPath>
</defs>
</svg>
